<svg width="32" height="32" viewBox="0 0 32 32" fill="none" xmlns="http://www.w3.org/2000/svg">
<path d="M14.6667 22.6668L17.3334 25.3335C17.596 25.5961 17.9078 25.8045 18.251 25.9466C18.5941 26.0888 18.9619 26.1619 19.3334 26.1619C19.7048 26.1619 20.0726 26.0888 20.4157 25.9466C20.7589 25.8045 21.0707 25.5961 21.3334 25.3335C21.596 25.0709 21.8043 24.759 21.9465 24.4159C22.0886 24.0727 22.1618 23.7049 22.1618 23.3335C22.1618 22.9621 22.0886 22.5943 21.9465 22.2511C21.8043 21.9079 21.596 21.5961 21.3334 21.3335" stroke="#2200FF" stroke-width="3" stroke-linecap="round" stroke-linejoin="round"/>
<path d="M18.6667 18.6669L22 22.0002C22.5304 22.5306 23.2499 22.8286 24 22.8286C24.7501 22.8286 25.4696 22.5306 26 22.0002C26.5304 21.4698 26.8284 20.7503 26.8284 20.0002C26.8284 19.25 26.5304 18.5306 26 18.0002L20.8267 12.8268C20.0767 12.0778 19.06 11.657 18 11.657C16.94 11.657 15.9233 12.0778 15.1733 12.8268L14 14.0002C13.4696 14.5306 12.7501 14.8286 12 14.8286C11.2499 14.8286 10.5304 14.5306 10 14.0002C9.46956 13.4698 9.17157 12.7503 9.17157 12.0002C9.17157 11.25 9.46956 10.5306 10 10.0002L13.7467 6.25352C14.963 5.04038 16.5492 4.26759 18.2542 4.05748C19.9592 3.84737 21.6855 4.21196 23.16 5.09352L23.7867 5.46685C24.3544 5.8095 25.0294 5.92834 25.68 5.80018L28 5.33352" stroke="#2200FF" stroke-width="3" stroke-linecap="round" stroke-linejoin="round"/>
<path d="M28 4L29.3334 18.6667H26.6667" stroke="#2200FF" stroke-width="3" stroke-linecap="round" stroke-linejoin="round"/>
<path d="M4.00002 4L2.66669 18.6667L11.3334 27.3333C11.8638 27.8638 12.5832 28.1618 13.3334 28.1618C14.0835 28.1618 14.8029 27.8638 15.3334 27.3333C15.8638 26.8029 16.1618 26.0835 16.1618 25.3333C16.1618 24.5832 15.8638 23.8638 15.3334 23.3333" stroke="#2200FF" stroke-width="3" stroke-linecap="round" stroke-linejoin="round"/>
<path d="M4 5.3335H14.6667" stroke="#2200FF" stroke-width="3" stroke-linecap="round" stroke-linejoin="round"/>
</svg>
