<svg width="16" height="16" viewBox="0 0 16 16" fill="none" xmlns="http://www.w3.org/2000/svg">
<path d="M6.39568 2.62676C6.45596 2.26512 6.76885 2.00006 7.13548 2.00006H8.86479C9.23142 2.00006 9.54431 2.26512 9.60459 2.62676L9.74692 3.48079C9.78848 3.73016 9.95513 3.93787 10.1763 4.0603C10.2258 4.08767 10.2746 4.11595 10.3229 4.14511C10.5396 4.27595 10.8032 4.31664 11.0402 4.22783L11.8515 3.92391C12.1948 3.79529 12.5808 3.93373 12.7641 4.25124L13.6288 5.74887C13.8121 6.06638 13.739 6.46988 13.4559 6.7029L12.7863 7.25411C12.5913 7.41465 12.4947 7.66254 12.4993 7.91508C12.4999 7.94334 12.5001 7.97167 12.5001 8.00006C12.5001 8.02845 12.4999 8.05677 12.4993 8.08503C12.4947 8.33757 12.5913 8.58547 12.7863 8.746L13.4559 9.29721C13.739 9.53023 13.8121 9.93373 13.6288 10.2512L12.7641 11.7489C12.5808 12.0664 12.1948 12.2048 11.8515 12.0762L11.0402 11.7723C10.8032 11.6835 10.5396 11.7242 10.3229 11.855C10.2746 11.8842 10.2258 11.9124 10.1763 11.9398C9.95513 12.0623 9.78848 12.27 9.74692 12.5193L9.60459 13.3734C9.54431 13.735 9.23142 14.0001 8.86479 14.0001H7.13548C6.76885 14.0001 6.45596 13.735 6.39568 13.3734L6.25335 12.5193C6.21179 12.27 6.04514 12.0623 5.82396 11.9398C5.77451 11.9124 5.72563 11.8842 5.67734 11.855C5.46065 11.7242 5.1971 11.6835 4.96006 11.7723L4.14881 12.0762C3.80548 12.2048 3.41949 12.0664 3.23617 11.7489L2.37152 10.2513C2.1882 9.93374 2.26131 9.53024 2.54436 9.29722L3.21393 8.74601C3.40893 8.58548 3.5056 8.33758 3.50092 8.08504C3.5004 8.05678 3.50014 8.02845 3.50014 8.00006C3.50014 7.97168 3.5004 7.94335 3.50092 7.91509C3.5056 7.66255 3.40893 7.41466 3.21393 7.25412L2.54436 6.70291C2.26131 6.46989 2.1882 6.06639 2.37152 5.74888L3.23617 4.25125C3.41949 3.93374 3.80548 3.7953 4.14881 3.92392L4.96005 4.22784C5.19709 4.31664 5.46064 4.27596 5.67733 4.14511C5.72562 4.11595 5.77451 4.08768 5.82396 4.0603C6.04514 3.93787 6.21179 3.73016 6.25335 3.48079L6.39568 2.62676Z" stroke="#3A4050" stroke-width="1.5" stroke-linecap="round" stroke-linejoin="round"/>
<path d="M9.99998 8.00001C9.99998 9.10458 9.10455 10 7.99998 10C6.89541 10 5.99998 9.10458 5.99998 8.00001C5.99998 6.89544 6.89541 6.00001 7.99998 6.00001C9.10455 6.00001 9.99998 6.89544 9.99998 8.00001Z" stroke="#3A4050" stroke-width="1.5" stroke-linecap="round" stroke-linejoin="round"/>
</svg>
