<svg width="16" height="16" viewBox="0 0 16 16" fill="none" xmlns="http://www.w3.org/2000/svg">
<path d="M6.89506 2.6267C6.95534 2.26506 7.26823 2 7.63486 2H8.36417C8.7308 2 9.04369 2.26506 9.10396 2.6267L9.20327 3.22258C9.25042 3.50542 9.45903 3.73226 9.72386 3.84221C9.98881 3.95222 10.293 3.93752 10.5265 3.77078L11.0182 3.41956C11.3165 3.20646 11.7252 3.24028 11.9845 3.49953L12.5002 4.01523C12.7594 4.27447 12.7932 4.68315 12.5801 4.98148L12.2288 5.47338C12.0621 5.70675 12.0474 6.01089 12.1573 6.27575C12.2673 6.54052 12.494 6.74909 12.7768 6.79622L13.3728 6.89555C13.7345 6.95582 13.9995 7.26872 13.9995 7.63535V8.36465C13.9995 8.73128 13.7345 9.04418 13.3728 9.10445L12.7769 9.20376C12.4941 9.2509 12.2673 9.45952 12.1573 9.72434C12.0473 9.98928 12.062 10.2935 12.2287 10.5269L12.5799 11.0186C12.793 11.3169 12.7592 11.7256 12.4999 11.9848L11.9842 12.5005C11.725 12.7598 11.3163 12.7936 11.018 12.5805L10.5262 12.2292C10.2928 12.0625 9.98868 12.0478 9.72379 12.1578C9.459 12.2678 9.25042 12.4945 9.20329 12.7773L9.10396 13.3733C9.04369 13.7349 8.7308 14 8.36417 14H7.63486C7.26823 14 6.95534 13.7349 6.89506 13.3733L6.79575 12.7774C6.74861 12.4946 6.53999 12.2677 6.27517 12.1578C6.01023 12.0478 5.70601 12.0625 5.47258 12.2292L4.98083 12.5805C4.68249 12.7936 4.27382 12.7597 4.01457 12.5005L3.49887 11.9848C3.23963 11.7256 3.2058 11.3169 3.4189 11.0185L3.77026 10.5266C3.93695 10.2933 3.95165 9.98913 3.84168 9.72425C3.73176 9.45948 3.50497 9.25091 3.22219 9.20378L2.62621 9.10445C2.26457 9.04418 1.99951 8.73128 1.99951 8.36465V7.63535C1.99951 7.26872 2.26457 6.95582 2.62621 6.89555L3.22208 6.79624C3.50493 6.7491 3.73177 6.54048 3.84172 6.27565C3.95173 6.0107 3.93704 5.70647 3.7703 5.47302L3.41916 4.98144C3.20607 4.6831 3.23989 4.27443 3.49913 4.01518L4.01483 3.49948C4.27408 3.24024 4.68275 3.20641 4.98109 3.41951L5.47282 3.77075C5.70621 3.93745 6.01036 3.95215 6.27525 3.84218C6.54003 3.73225 6.7486 3.50546 6.79573 3.22267L6.89506 2.6267Z" stroke="#0F172A" stroke-width="1.5" stroke-linecap="round" stroke-linejoin="round"/>
<path d="M9.99998 8.00002C9.99998 9.10459 9.10455 10 7.99998 10C6.89541 10 5.99998 9.10459 5.99998 8.00002C5.99998 6.89545 6.89541 6.00002 7.99998 6.00002C9.10455 6.00002 9.99998 6.89545 9.99998 8.00002Z" stroke="#0F172A" stroke-width="1.5" stroke-linecap="round" stroke-linejoin="round"/>
</svg>
