<svg width="16" height="16" viewBox="0 0 16 16" fill="none" xmlns="http://www.w3.org/2000/svg">
<path fill-rule="evenodd" clip-rule="evenodd" d="M5.5 2.5L13 2.5C13.1326 2.5 13.2598 2.55268 13.3536 2.64645C13.4473 2.74021 13.5 2.86739 13.5 3V10.5C13.5 10.7761 13.2761 11 13 11C12.7239 11 12.5 10.7761 12.5 10.5V4.20711L3.35355 13.3536C3.15829 13.5488 2.84171 13.5488 2.64645 13.3536C2.45118 13.1583 2.45118 12.8417 2.64645 12.6464L11.7929 3.5L5.5 3.5C5.22386 3.5 5 3.27614 5 3C5 2.72386 5.22386 2.5 5.5 2.5Z" fill="#090A0D" stroke="#090A0D" stroke-width="0.5" stroke-linecap="round" stroke-linejoin="round"/>
</svg>
