<svg width="32" height="32" viewBox="0 0 32 32" fill="none" xmlns="http://www.w3.org/2000/svg">
<path d="M26.6666 17.3333C26.6666 23.9999 22 27.3333 16.4533 29.2666C16.1629 29.365 15.8474 29.3603 15.56 29.2533C9.99998 27.3333 5.33331 23.9999 5.33331 17.3333V7.99995C5.33331 7.64633 5.47379 7.30719 5.72384 7.05714C5.97389 6.80709 6.31302 6.66662 6.66665 6.66662C9.33331 6.66662 12.6666 5.06662 14.9866 3.03995C15.2691 2.79861 15.6285 2.66602 16 2.66602C16.3715 2.66602 16.7308 2.79861 17.0133 3.03995C19.3466 5.07995 22.6666 6.66662 25.3333 6.66662C25.6869 6.66662 26.0261 6.80709 26.2761 7.05714C26.5262 7.30719 26.6666 7.64633 26.6666 7.99995V17.3333Z" stroke="#FF272A" stroke-width="3" stroke-linecap="round" stroke-linejoin="round"/>
<path d="M12 16.0002L14.6667 18.6668L20 13.3335" stroke="#FF272A" stroke-width="3" stroke-linecap="round" stroke-linejoin="round"/>
</svg>
