<svg width="24" height="24" viewBox="0 0 24 24" fill="none" xmlns="http://www.w3.org/2000/svg">
<path fill-rule="evenodd" clip-rule="evenodd" d="M13.125 1.125C13.125 0.50368 12.6213 0 12 0C11.3787 0 10.875 0.50368 10.875 1.125V10.875H1.125C0.50368 10.875 0 11.3787 0 12C0 12.6213 0.50368 13.125 1.125 13.125H10.875V22.875C10.875 23.4963 11.3787 24 12 24C12.6213 24 13.125 23.4963 13.125 22.875V13.125H22.875C23.4963 13.125 24 12.6213 24 12C24 11.3787 23.4963 10.875 22.875 10.875H13.125V1.125Z" fill="#0F172A"/>
</svg>
