<svg width="7" height="7" viewBox="0 0 7 7" fill="none" xmlns="http://www.w3.org/2000/svg">
<path d="M3.57437 0.0360132L4.35621 1.41381C4.62424 1.89386 5.03171 2.28863 5.52898 2.55006L6.96237 3.30158C6.97389 3.30893 6.98333 3.3189 6.98986 3.33061C6.9964 3.34232 6.99981 3.35539 6.99981 3.36868C6.99981 3.38197 6.9964 3.39505 6.98986 3.40676C6.98333 3.41846 6.97389 3.42845 6.96237 3.43579L5.52898 4.18732C5.03171 4.44875 4.62424 4.84351 4.35621 5.32355L3.57437 6.69242C3.56908 6.70612 3.55955 6.71792 3.54707 6.72626C3.53459 6.73461 3.51975 6.73908 3.50455 6.73908C3.48935 6.73908 3.47453 6.73461 3.46205 6.72626C3.44957 6.71792 3.44005 6.70612 3.43476 6.69242L2.6436 5.32355C2.37557 4.84351 1.9681 4.44875 1.47083 4.18732L0.0374658 3.43579C0.0259462 3.42845 0.0164785 3.41846 0.00994165 3.40676C0.00340478 3.39505 0 3.38197 0 3.36868C0 3.35539 0.00340478 3.34232 0.00994165 3.33061C0.0164785 3.3189 0.0259462 3.30893 0.0374658 3.30158L1.47083 2.55006C1.9681 2.28863 2.37557 1.89386 2.6436 1.41381L3.43476 0.0360132C3.4424 0.0249402 3.45277 0.0158533 3.46495 0.00956985C3.47713 0.00328643 3.49072 0 3.50455 0C3.51837 0 3.53199 0.00328643 3.54417 0.00956985C3.55635 0.0158533 3.56672 0.0249402 3.57437 0.0360132Z" fill="white"/>
</svg>
