<svg width="24" height="24" viewBox="0 0 24 24" fill="none" xmlns="http://www.w3.org/2000/svg">
<path d="M11.9748 12.0253C11.6562 12.0243 11.3379 12.0075 11.0211 11.9747C11.3369 12 11.6527 12.0253 11.9748 12.0253Z" fill="#F9FAFB"/>
<path d="M23.9748 12C23.977 15.1064 22.7744 18.0926 20.6201 20.3306C18.4657 22.5686 15.5274 23.8839 12.4232 24C12.8148 24 13.2063 23.9368 13.5979 23.88V15.1768H16.7053L17.1979 12.0189H13.6042V10.2947C13.6042 8.98101 14.0274 7.81891 15.259 7.81891H17.2232V5.07154C16.4088 4.96459 15.5877 4.91604 14.7663 4.92627C11.8737 4.92627 10.1811 6.44838 10.1811 9.92207V12.0252H7.23159V15.1831H10.2V23.8547C10.4779 23.899 10.7621 23.9368 11.0463 23.9621C8.72071 23.7767 6.49955 22.9174 4.65467 21.4893C2.8098 20.0613 1.42122 18.1264 0.658822 15.9215C-0.103572 13.7166 -0.206701 11.3372 0.362055 9.07458C0.930812 6.81196 2.14679 4.76421 3.86119 3.18188C5.57559 1.59956 7.71405 0.551279 10.0149 0.16534C12.3158 -0.2206 14.6793 0.0725309 16.8161 1.00886C18.953 1.94519 20.7706 3.4841 22.0465 5.4373C23.3224 7.39051 24.0013 9.67327 24 12.0063L23.9748 12Z" fill="#F9FAFB"/>
</svg>
