<svg width="6" height="5" viewBox="0 0 6 5" fill="none" xmlns="http://www.w3.org/2000/svg">
<path d="M2.60336 0.00949722L3.18354 1.03048C3.39135 1.39136 3.70068 1.68869 4.07611 1.88845L5.13828 2.44612C5.1457 2.45174 5.15171 2.45892 5.15583 2.46709C5.15996 2.47527 5.1621 2.48423 5.1621 2.49332C5.1621 2.5024 5.15996 2.51136 5.15583 2.51954C5.15171 2.52771 5.1457 2.53488 5.13828 2.5405L4.07611 3.09818C3.70068 3.29794 3.39135 3.59527 3.18354 3.95615L2.60336 4.97713C2.59752 4.98427 2.59006 4.99004 2.58156 4.99401C2.57306 4.99798 2.56373 5.00003 2.55427 5.00003C2.54482 5.00003 2.53549 4.99798 2.52699 4.99401C2.51848 4.99004 2.51103 4.98427 2.50518 4.97713L1.92501 3.95615C1.7172 3.59527 1.40787 3.29794 1.03243 3.09818L0.0238275 2.53192C0.0164006 2.5263 0.0103997 2.51914 0.00627182 2.51096C0.00214399 2.50279 0 2.49383 0 2.48474C0 2.47565 0.00214399 2.46668 0.00627182 2.4585C0.0103997 2.45033 0.0164006 2.44317 0.0238275 2.43755L1.08599 1.87987C1.46143 1.68012 1.77075 1.38278 1.97857 1.0219L2.55873 0.000922261C2.5742 -0.00171286 2.59014 0.00134573 2.60336 0.00949722Z" fill="white"/>
</svg>
