<svg width="3" height="3" viewBox="0 0 3 3" fill="none" xmlns="http://www.w3.org/2000/svg">
<path d="M2.99979 1.44113C2.99979 1.72616 2.91181 2.00479 2.747 2.24178C2.58219 2.47878 2.34794 2.66349 2.07387 2.77256C1.7998 2.88164 1.49823 2.91018 1.20728 2.85457C0.916327 2.79897 0.649073 2.66171 0.43931 2.46016C0.229546 2.25862 0.0866924 2.00183 0.0288188 1.72228C-0.0290548 1.44273 0.000655181 1.15297 0.114178 0.889637C0.227701 0.626305 0.419946 0.40123 0.666601 0.242877C0.913257 0.0845233 1.20325 0 1.4999 0C1.8977 0 2.27919 0.15183 2.56048 0.422094C2.84176 0.692359 2.99979 1.05892 2.99979 1.44113Z" fill="white"/>
</svg>
