<svg width="4" height="3" viewBox="0 0 4 3" fill="none" xmlns="http://www.w3.org/2000/svg">
<path d="M3.12105 1.50002C3.12105 1.79669 3.02952 2.08669 2.85805 2.33337C2.68658 2.58005 2.44286 2.77233 2.15771 2.88586C1.87256 2.99939 1.55879 3.02909 1.25608 2.97121C0.953369 2.91333 0.675303 2.77046 0.457061 2.56068C0.238818 2.3509 0.0902006 2.08362 0.0299876 1.79264C-0.0302255 1.50167 0.000670757 1.20009 0.118783 0.925997C0.236895 0.651905 0.436917 0.417635 0.693544 0.252811C0.95017 0.0879868 1.25188 0 1.56052 0C1.9744 0 2.37132 0.158044 2.66397 0.439351C2.95663 0.720659 3.12105 1.10219 3.12105 1.50002Z" fill="white"/>
</svg>
