<svg width="3" height="3" viewBox="0 0 3 3" fill="none" xmlns="http://www.w3.org/2000/svg">
<path d="M2.43744 0.31173C2.66894 0.489857 2.84033 0.729927 2.92985 1.0016C3.01938 1.27328 3.02305 1.56436 2.94044 1.83805C2.85782 2.11174 2.69261 2.35575 2.46569 2.53925C2.23876 2.72274 1.96029 2.83747 1.66552 2.86894C1.37074 2.90041 1.07287 2.8472 0.809562 2.71604C0.546254 2.58489 0.329319 2.38167 0.186191 2.13208C0.0430628 1.88249 -0.0198171 1.59774 0.00545886 1.31381C0.0307349 1.02988 0.143066 0.759513 0.32823 0.536903C0.578543 0.240693 0.940125 0.0510235 1.33481 0.00888785C1.72949 -0.0332478 2.12556 0.0755387 2.43744 0.31173Z" fill="white"/>
</svg>
