<svg width="24" height="24" viewBox="0 0 24 24" fill="none" xmlns="http://www.w3.org/2000/svg">
<path d="M12.0067 15.3315C13.8476 15.3315 15.34 13.8399 15.34 12C15.34 10.1601 13.8476 8.66852 12.0067 8.66852C10.1657 8.66852 8.67334 10.1601 8.67334 12C8.67334 13.8399 10.1657 15.3315 12.0067 15.3315Z" fill="#F9FAFB"/>
<path d="M16.0067 4.67741H8.00667C7.12262 4.67741 6.27476 5.02839 5.64964 5.65317C5.02452 6.27794 4.67334 7.12533 4.67334 8.00889V16.0044C4.67334 16.888 5.02452 17.7354 5.64964 18.3602C6.27476 18.9849 7.12262 19.3359 8.00667 19.3359H16.0067C16.8907 19.3359 17.7386 18.9849 18.3637 18.3602C18.9888 17.7354 19.34 16.888 19.34 16.0044V8.00889C19.34 7.12533 18.9888 6.27794 18.3637 5.65317C17.7386 5.02839 16.8907 4.67741 16.0067 4.67741ZM12.0067 16.6707C11.0837 16.6707 10.1814 16.3972 9.414 15.8847C8.64657 15.3722 8.04844 14.6438 7.69523 13.7915C7.34202 12.9393 7.2496 12.0015 7.42967 11.0968C7.60973 10.192 8.05418 9.36094 8.70683 8.70866C9.35947 8.05638 10.191 7.61217 11.0963 7.43221C12.0015 7.25224 12.9398 7.34461 13.7925 7.69762C14.6452 8.05064 15.3741 8.64844 15.8869 9.41544C16.3996 10.1824 16.6733 11.0842 16.6733 12.0067C16.6733 13.2437 16.1817 14.43 15.3065 15.3047C14.4313 16.1794 13.2444 16.6707 12.0067 16.6707ZM17.0067 8.00889C16.8089 8.00889 16.6155 7.95027 16.4511 7.84045C16.2866 7.73063 16.1585 7.57453 16.0828 7.39191C16.0071 7.20928 15.9873 7.00834 16.0259 6.81447C16.0645 6.62059 16.1597 6.4425 16.2996 6.30273C16.4394 6.16295 16.6176 6.06776 16.8116 6.0292C17.0056 5.99064 17.2066 6.01043 17.3893 6.08607C17.5721 6.16172 17.7283 6.28982 17.8381 6.45417C17.948 6.61853 18.0067 6.81178 18.0067 7.00945C18.0067 7.27452 17.9013 7.52872 17.7138 7.71615C17.5262 7.90358 17.2719 8.00889 17.0067 8.00889Z" fill="#F9FAFB"/>
<path d="M24 5.33037C24 3.91667 23.4381 2.56088 22.4379 1.56125C21.4377 0.561607 20.0812 0 18.6667 0H5.33333C3.91885 0 2.56229 0.561607 1.56209 1.56125C0.561899 2.56088 0 3.91667 0 5.33037V18.6563C0 20.07 0.561899 21.4258 1.56209 22.4254C2.56229 23.4251 3.91885 23.9867 5.33333 23.9867H18.6667C20.0812 23.9867 21.4377 23.4251 22.4379 22.4254C23.4381 21.4258 24 20.07 24 18.6563V5.33037ZM20.6667 15.9911C20.6667 17.2281 20.175 18.4144 19.2998 19.2891C18.4247 20.1638 17.2377 20.6552 16 20.6552H8C6.76232 20.6552 5.57535 20.1638 4.70018 19.2891C3.82501 18.4144 3.33333 17.2281 3.33333 15.9911V7.99555C3.33333 6.75856 3.82501 5.57225 4.70018 4.69756C5.57535 3.82288 6.76232 3.33148 8 3.33148H16C17.2377 3.33148 18.4247 3.82288 19.2998 4.69756C20.175 5.57225 20.6667 6.75856 20.6667 7.99555V15.9911Z" fill="#F9FAFB"/>
<path d="M12.0067 15.3382C13.8476 15.3382 15.34 13.8466 15.34 12.0067C15.34 10.1667 13.8476 8.67519 12.0067 8.67519C10.1657 8.67519 8.67334 10.1667 8.67334 12.0067C8.67334 13.8466 10.1657 15.3382 12.0067 15.3382Z" fill="#F9FAFB"/>
<path d="M16.0067 4.67741H8.00667C7.12262 4.67741 6.27476 5.02839 5.64964 5.65317C5.02452 6.27794 4.67334 7.12533 4.67334 8.00889V16.0044C4.67334 16.888 5.02452 17.7354 5.64964 18.3602C6.27476 18.9849 7.12262 19.3359 8.00667 19.3359H16.0067C16.8907 19.3359 17.7386 18.9849 18.3637 18.3602C18.9888 17.7354 19.34 16.888 19.34 16.0044V8.00889C19.34 7.12533 18.9888 6.27794 18.3637 5.65317C17.7386 5.02839 16.8907 4.67741 16.0067 4.67741ZM12.0067 16.6707C11.0837 16.6707 10.1814 16.3972 9.414 15.8847C8.64657 15.3722 8.04844 14.6438 7.69523 13.7915C7.34202 12.9393 7.2496 12.0015 7.42967 11.0968C7.60973 10.192 8.05418 9.36094 8.70683 8.70866C9.35947 8.05638 10.191 7.61217 11.0963 7.43221C12.0015 7.25224 12.9398 7.34461 13.7925 7.69762C14.6452 8.05064 15.3741 8.64844 15.8869 9.41544C16.3996 10.1824 16.6733 11.0842 16.6733 12.0067C16.6733 13.2437 16.1817 14.43 15.3065 15.3047C14.4313 16.1794 13.2444 16.6707 12.0067 16.6707ZM17.0067 8.00889C16.8089 8.00889 16.6155 7.95027 16.4511 7.84045C16.2866 7.73063 16.1585 7.57453 16.0828 7.39191C16.0071 7.20928 15.9873 7.00834 16.0259 6.81447C16.0645 6.62059 16.1597 6.4425 16.2996 6.30273C16.4394 6.16295 16.6176 6.06776 16.8116 6.0292C17.0056 5.99064 17.2066 6.01043 17.3893 6.08607C17.5721 6.16172 17.7283 6.28982 17.8381 6.45417C17.948 6.61853 18.0067 6.81178 18.0067 7.00945C18.0067 7.27452 17.9013 7.52872 17.7138 7.71615C17.5262 7.90358 17.2719 8.00889 17.0067 8.00889ZM16.0067 4.67741H8.00667C7.12262 4.67741 6.27476 5.02839 5.64964 5.65317C5.02452 6.27794 4.67334 7.12533 4.67334 8.00889V16.0044C4.67334 16.888 5.02452 17.7354 5.64964 18.3602C6.27476 18.9849 7.12262 19.3359 8.00667 19.3359H16.0067C16.8907 19.3359 17.7386 18.9849 18.3637 18.3602C18.9888 17.7354 19.34 16.888 19.34 16.0044V8.00889C19.34 7.12533 18.9888 6.27794 18.3637 5.65317C17.7386 5.02839 16.8907 4.67741 16.0067 4.67741ZM12.0067 16.6707C11.0837 16.6707 10.1814 16.3972 9.414 15.8847C8.64657 15.3722 8.04844 14.6438 7.69523 13.7915C7.34202 12.9393 7.2496 12.0015 7.42967 11.0968C7.60973 10.192 8.05418 9.36094 8.70683 8.70866C9.35947 8.05638 10.191 7.61217 11.0963 7.43221C12.0015 7.25224 12.9398 7.34461 13.7925 7.69762C14.6452 8.05064 15.3741 8.64844 15.8869 9.41544C16.3996 10.1824 16.6733 11.0842 16.6733 12.0067C16.6733 13.2437 16.1817 14.43 15.3065 15.3047C14.4313 16.1794 13.2444 16.6707 12.0067 16.6707ZM17.0067 8.00889C16.8089 8.00889 16.6155 7.95027 16.4511 7.84045C16.2866 7.73063 16.1585 7.57453 16.0828 7.39191C16.0071 7.20928 15.9873 7.00834 16.0259 6.81447C16.0645 6.62059 16.1597 6.4425 16.2996 6.30273C16.4394 6.16295 16.6176 6.06776 16.8116 6.0292C17.0056 5.99064 17.2066 6.01043 17.3893 6.08607C17.5721 6.16172 17.7283 6.28982 17.8381 6.45417C17.948 6.61853 18.0067 6.81178 18.0067 7.00945C18.0067 7.27452 17.9013 7.52872 17.7138 7.71615C17.5262 7.90358 17.2719 8.00889 17.0067 8.00889ZM16.0067 4.67741H8.00667C7.12262 4.67741 6.27476 5.02839 5.64964 5.65317C5.02452 6.27794 4.67334 7.12533 4.67334 8.00889V16.0044C4.67334 16.888 5.02452 17.7354 5.64964 18.3602C6.27476 18.9849 7.12262 19.3359 8.00667 19.3359H16.0067C16.8907 19.3359 17.7386 18.9849 18.3637 18.3602C18.9888 17.7354 19.34 16.888 19.34 16.0044V8.00889C19.34 7.12533 18.9888 6.27794 18.3637 5.65317C17.7386 5.02839 16.8907 4.67741 16.0067 4.67741ZM12.0067 16.6707C11.0837 16.6707 10.1814 16.3972 9.414 15.8847C8.64657 15.3722 8.04844 14.6438 7.69523 13.7915C7.34202 12.9393 7.2496 12.0015 7.42967 11.0968C7.60973 10.192 8.05418 9.36094 8.70683 8.70866C9.35947 8.05638 10.191 7.61217 11.0963 7.43221C12.0015 7.25224 12.9398 7.34461 13.7925 7.69762C14.6452 8.05064 15.3741 8.64844 15.8869 9.41544C16.3996 10.1824 16.6733 11.0842 16.6733 12.0067C16.6733 13.2437 16.1817 14.43 15.3065 15.3047C14.4313 16.1794 13.2444 16.6707 12.0067 16.6707ZM17.0067 8.00889C16.8089 8.00889 16.6155 7.95027 16.4511 7.84045C16.2866 7.73063 16.1585 7.57453 16.0828 7.39191C16.0071 7.20928 15.9873 7.00834 16.0259 6.81447C16.0645 6.62059 16.1597 6.4425 16.2996 6.30273C16.4394 6.16295 16.6176 6.06776 16.8116 6.0292C17.0056 5.99064 17.2066 6.01043 17.3893 6.08607C17.5721 6.16172 17.7283 6.28982 17.8381 6.45417C17.948 6.61853 18.0067 6.81178 18.0067 7.00945C18.0067 7.27452 17.9013 7.52872 17.7138 7.71615C17.5262 7.90358 17.2719 8.00889 17.0067 8.00889ZM16.0067 4.67741H8.00667C7.12262 4.67741 6.27476 5.02839 5.64964 5.65317C5.02452 6.27794 4.67334 7.12533 4.67334 8.00889V16.0044C4.67334 16.888 5.02452 17.7354 5.64964 18.3602C6.27476 18.9849 7.12262 19.3359 8.00667 19.3359H16.0067C16.8907 19.3359 17.7386 18.9849 18.3637 18.3602C18.9888 17.7354 19.34 16.888 19.34 16.0044V8.00889C19.34 7.12533 18.9888 6.27794 18.3637 5.65317C17.7386 5.02839 16.8907 4.67741 16.0067 4.67741ZM12.0067 16.6707C11.0837 16.6707 10.1814 16.3972 9.414 15.8847C8.64657 15.3722 8.04844 14.6438 7.69523 13.7915C7.34202 12.9393 7.2496 12.0015 7.42967 11.0968C7.60973 10.192 8.05418 9.36094 8.70683 8.70866C9.35947 8.05638 10.191 7.61217 11.0963 7.43221C12.0015 7.25224 12.9398 7.34461 13.7925 7.69762C14.6452 8.05064 15.3741 8.64844 15.8869 9.41544C16.3996 10.1824 16.6733 11.0842 16.6733 12.0067C16.6733 13.2437 16.1817 14.43 15.3065 15.3047C14.4313 16.1794 13.2444 16.6707 12.0067 16.6707ZM17.0067 8.00889C16.8089 8.00889 16.6155 7.95027 16.4511 7.84045C16.2866 7.73063 16.1585 7.57453 16.0828 7.39191C16.0071 7.20928 15.9873 7.00834 16.0259 6.81447C16.0645 6.62059 16.1597 6.4425 16.2996 6.30273C16.4394 6.16295 16.6176 6.06776 16.8116 6.0292C17.0056 5.99064 17.2066 6.01043 17.3893 6.08607C17.5721 6.16172 17.7283 6.28982 17.8381 6.45417C17.948 6.61853 18.0067 6.81178 18.0067 7.00945C18.0067 7.27452 17.9013 7.52872 17.7138 7.71615C17.5262 7.90358 17.2719 8.00889 17.0067 8.00889ZM24 5.34371C24 3.93001 23.4381 2.5742 22.4379 1.57456C21.4377 0.574926 20.0812 0.0133389 18.6667 0.0133389H5.33333C3.91885 0.0133389 2.56229 0.574926 1.56209 1.57456C0.561899 2.5742 0 3.93001 0 5.34371V18.6696C0 20.0833 0.561899 21.4391 1.56209 22.4388C2.56229 23.4384 3.91885 24 5.33333 24H18.6667C20.0812 24 21.4377 23.4384 22.4379 22.4388C23.4381 21.4391 24 20.0833 24 18.6696V5.34371ZM20.6667 16.0044C20.6667 17.2414 20.175 18.4278 19.2998 19.3025C18.4247 20.1771 17.2377 20.6685 16 20.6685H8C6.76232 20.6685 5.57535 20.1771 4.70018 19.3025C3.82501 18.4278 3.33333 17.2414 3.33333 16.0044V8.00889C3.33333 6.7719 3.82501 5.58556 4.70018 4.71088C5.57535 3.8362 6.76232 3.34482 8 3.34482H16C17.2377 3.34482 18.4247 3.8362 19.2998 4.71088C20.175 5.58556 20.6667 6.7719 20.6667 8.00889V16.0044ZM8 4.67741C7.11595 4.67741 6.26811 5.02839 5.64299 5.65317C5.01786 6.27794 4.66667 7.12533 4.66667 8.00889V16.0044C4.66667 16.888 5.01786 17.7354 5.64299 18.3602C6.26811 18.9849 7.11595 19.3359 8 19.3359H16C16.8841 19.3359 17.7319 18.9849 18.357 18.3602C18.9821 17.7354 19.3333 16.888 19.3333 16.0044V8.00889C19.3333 7.12648 18.9831 6.28011 18.3594 5.65553C17.7357 5.03094 16.8896 4.67918 16.0067 4.67741H8ZM12 16.6707C11.077 16.6707 10.1748 16.3972 9.40735 15.8847C8.63992 15.3722 8.04177 14.6438 7.68856 13.7915C7.33535 12.9393 7.24293 12.0015 7.42299 11.0968C7.60306 10.192 8.04753 9.36094 8.70018 8.70866C9.35282 8.05638 10.1843 7.61217 11.0896 7.43221C11.9948 7.25224 12.9331 7.34461 13.7858 7.69762C14.6386 8.05064 15.3674 8.64844 15.8802 9.41544C16.393 10.1824 16.6667 11.0842 16.6667 12.0067C16.6667 13.2425 16.1759 14.4278 15.3022 15.3023C14.4285 16.1768 13.2432 16.669 12.0067 16.6707H12ZM17 8.00889C16.8022 8.00889 16.6089 7.95027 16.4444 7.84045C16.28 7.73063 16.1518 7.57453 16.0761 7.39191C16.0004 7.20928 15.9806 7.00834 16.0192 6.81447C16.0578 6.62059 16.153 6.4425 16.2929 6.30273C16.4327 6.16295 16.6109 6.06776 16.8049 6.0292C16.9989 5.99064 17.2 6.01043 17.3827 6.08607C17.5654 6.16172 17.7216 6.28982 17.8315 6.45417C17.9413 6.61853 18 6.81178 18 7.00945C18 7.27337 17.8956 7.52657 17.7095 7.71381C17.5234 7.90105 17.2707 8.00713 17.0067 8.00889H17ZM8 4.67741C7.11595 4.67741 6.26811 5.02839 5.64299 5.65317C5.01786 6.27794 4.66667 7.12533 4.66667 8.00889V16.0044C4.66667 16.888 5.01786 17.7354 5.64299 18.3602C6.26811 18.9849 7.11595 19.3359 8 19.3359H16C16.8841 19.3359 17.7319 18.9849 18.357 18.3602C18.9821 17.7354 19.3333 16.888 19.3333 16.0044V8.00889C19.3333 7.12648 18.9831 6.28011 18.3594 5.65553C17.7357 5.03094 16.8896 4.67918 16.0067 4.67741H8ZM12 16.6707C11.077 16.6707 10.1748 16.3972 9.40735 15.8847C8.63992 15.3722 8.04177 14.6438 7.68856 13.7915C7.33535 12.9393 7.24293 12.0015 7.42299 11.0968C7.60306 10.192 8.04753 9.36094 8.70018 8.70866C9.35282 8.05638 10.1843 7.61217 11.0896 7.43221C11.9948 7.25224 12.9331 7.34461 13.7858 7.69762C14.6386 8.05064 15.3674 8.64844 15.8802 9.41544C16.393 10.1824 16.6667 11.0842 16.6667 12.0067C16.6667 13.2425 16.1759 14.4278 15.3022 15.3023C14.4285 16.1768 13.2432 16.669 12.0067 16.6707H12ZM17 8.00889C16.8022 8.00889 16.6089 7.95027 16.4444 7.84045C16.28 7.73063 16.1518 7.57453 16.0761 7.39191C16.0004 7.20928 15.9806 7.00834 16.0192 6.81447C16.0578 6.62059 16.153 6.4425 16.2929 6.30273C16.4327 6.16295 16.6109 6.06776 16.8049 6.0292C16.9989 5.99064 17.2 6.01043 17.3827 6.08607C17.5654 6.16172 17.7216 6.28982 17.8315 6.45417C17.9413 6.61853 18 6.81178 18 7.00945C18 7.27337 17.8956 7.52657 17.7095 7.71381C17.5234 7.90105 17.2707 8.00713 17.0067 8.00889H17ZM8 4.67741C7.11595 4.67741 6.26811 5.02839 5.64299 5.65317C5.01786 6.27794 4.66667 7.12533 4.66667 8.00889V16.0044C4.66667 16.888 5.01786 17.7354 5.64299 18.3602C6.26811 18.9849 7.11595 19.3359 8 19.3359H16C16.8841 19.3359 17.7319 18.9849 18.357 18.3602C18.9821 17.7354 19.3333 16.888 19.3333 16.0044V8.00889C19.3333 7.12648 18.9831 6.28011 18.3594 5.65553C17.7357 5.03094 16.8896 4.67918 16.0067 4.67741H8ZM12 16.6707C11.077 16.6707 10.1748 16.3972 9.40735 15.8847C8.63992 15.3722 8.04177 14.6438 7.68856 13.7915C7.33535 12.9393 7.24293 12.0015 7.42299 11.0968C7.60306 10.192 8.04753 9.36094 8.70018 8.70866C9.35282 8.05638 10.1843 7.61217 11.0896 7.43221C11.9948 7.25224 12.9331 7.34461 13.7858 7.69762C14.6386 8.05064 15.3674 8.64844 15.8802 9.41544C16.393 10.1824 16.6667 11.0842 16.6667 12.0067C16.6667 13.2425 16.1759 14.4278 15.3022 15.3023C14.4285 16.1768 13.2432 16.669 12.0067 16.6707H12ZM17 8.00889C16.8022 8.00889 16.6089 7.95027 16.4444 7.84045C16.28 7.73063 16.1518 7.57453 16.0761 7.39191C16.0004 7.20928 15.9806 7.00834 16.0192 6.81447C16.0578 6.62059 16.153 6.4425 16.2929 6.30273C16.4327 6.16295 16.6109 6.06776 16.8049 6.0292C16.9989 5.99064 17.2 6.01043 17.3827 6.08607C17.5654 6.16172 17.7216 6.28982 17.8315 6.45417C17.9413 6.61853 18 6.81178 18 7.00945C18 7.27337 17.8956 7.52657 17.7095 7.71381C17.5234 7.90105 17.2707 8.00713 17.0067 8.00889H17ZM8 4.67741C7.11595 4.67741 6.26811 5.02839 5.64299 5.65317C5.01786 6.27794 4.66667 7.12533 4.66667 8.00889V16.0044C4.66667 16.888 5.01786 17.7354 5.64299 18.3602C6.26811 18.9849 7.11595 19.3359 8 19.3359H16C16.8841 19.3359 17.7319 18.9849 18.357 18.3602C18.9821 17.7354 19.3333 16.888 19.3333 16.0044V8.00889C19.3333 7.12648 18.9831 6.28011 18.3594 5.65553C17.7357 5.03094 16.8896 4.67918 16.0067 4.67741H8ZM12 16.6707C11.077 16.6707 10.1748 16.3972 9.40735 15.8847C8.63992 15.3722 8.04177 14.6438 7.68856 13.7915C7.33535 12.9393 7.24293 12.0015 7.42299 11.0968C7.60306 10.192 8.04753 9.36094 8.70018 8.70866C9.35282 8.05638 10.1843 7.61217 11.0896 7.43221C11.9948 7.25224 12.9331 7.34461 13.7858 7.69762C14.6386 8.05064 15.3674 8.64844 15.8802 9.41544C16.393 10.1824 16.6667 11.0842 16.6667 12.0067C16.6667 13.2425 16.1759 14.4278 15.3022 15.3023C14.4285 16.1768 13.2432 16.669 12.0067 16.6707H12ZM17 8.00889C16.8022 8.00889 16.6089 7.95027 16.4444 7.84045C16.28 7.73063 16.1518 7.57453 16.0761 7.39191C16.0004 7.20928 15.9806 7.00834 16.0192 6.81447C16.0578 6.62059 16.153 6.4425 16.2929 6.30273C16.4327 6.16295 16.6109 6.06776 16.8049 6.0292C16.9989 5.99064 17.2 6.01043 17.3827 6.08607C17.5654 6.16172 17.7216 6.28982 17.8315 6.45417C17.9413 6.61853 18 6.81178 18 7.00945C18 7.27337 17.8956 7.52657 17.7095 7.71381C17.5234 7.90105 17.2707 8.00713 17.0067 8.00889H17ZM8 4.67741C7.11595 4.67741 6.26811 5.02839 5.64299 5.65317C5.01786 6.27794 4.66667 7.12533 4.66667 8.00889V16.0044C4.66667 16.888 5.01786 17.7354 5.64299 18.3602C6.26811 18.9849 7.11595 19.3359 8 19.3359H16C16.8841 19.3359 17.7319 18.9849 18.357 18.3602C18.9821 17.7354 19.3333 16.888 19.3333 16.0044V8.00889C19.3333 7.12648 18.9831 6.28011 18.3594 5.65553C17.7357 5.03094 16.8896 4.67918 16.0067 4.67741H8ZM12 16.6707C11.077 16.6707 10.1748 16.3972 9.40735 15.8847C8.63992 15.3722 8.04177 14.6438 7.68856 13.7915C7.33535 12.9393 7.24293 12.0015 7.42299 11.0968C7.60306 10.192 8.04753 9.36094 8.70018 8.70866C9.35282 8.05638 10.1843 7.61217 11.0896 7.43221C11.9948 7.25224 12.9331 7.34461 13.7858 7.69762C14.6386 8.05064 15.3674 8.64844 15.8802 9.41544C16.393 10.1824 16.6667 11.0842 16.6667 12.0067C16.6667 13.2425 16.1759 14.4278 15.3022 15.3023C14.4285 16.1768 13.2432 16.669 12.0067 16.6707H12ZM17 8.00889C16.8022 8.00889 16.6089 7.95027 16.4444 7.84045C16.28 7.73063 16.1518 7.57453 16.0761 7.39191C16.0004 7.20928 15.9806 7.00834 16.0192 6.81447C16.0578 6.62059 16.153 6.4425 16.2929 6.30273C16.4327 6.16295 16.6109 6.06776 16.8049 6.0292C16.9989 5.99064 17.2 6.01043 17.3827 6.08607C17.5654 6.16172 17.7216 6.28982 17.8315 6.45417C17.9413 6.61853 18 6.81178 18 7.00945C18 7.27337 17.8956 7.52657 17.7095 7.71381C17.5234 7.90105 17.2707 8.00713 17.0067 8.00889H17Z" fill="#F9FAFB"/>
</svg>
