<svg width="7" height="11" viewBox="0 0 7 11" fill="none" xmlns="http://www.w3.org/2000/svg">
<path style="mix-blend-mode:overlay" opacity="0.5" d="M5.8886 4.26378C4.87697 1.30238 2.87212 -0.545181 1.40066 0.144339C-0.070789 0.833859 -0.438627 3.77759 0.563799 6.73899C1.56623 9.70039 3.58028 11.5391 5.05173 10.8584C6.52318 10.1778 6.90022 7.22518 5.8886 4.26378ZM4.96894 10.6109C4.71037 10.7267 4.41854 10.7548 4.14122 10.6905C2.92728 10.4429 1.61217 8.81638 0.867246 6.65058C-0.0524115 3.86598 0.232682 1.00182 1.55699 0.383023C1.81575 0.267879 2.10734 0.239856 2.3847 0.303466C3.59865 0.559826 4.91376 2.18639 5.65868 4.35219C6.57834 7.12795 6.25648 10.001 4.93217 10.6109H4.96894Z" fill="url(#paint0_linear_116_1287)"/>
<defs>
<linearGradient id="paint0_linear_116_1287" x1="-0.444621" y1="4.70103" x2="6.91524" y2="6.36487" gradientUnits="userSpaceOnUse">
<stop stop-color="white" stop-opacity="0"/>
<stop offset="1" stop-color="white"/>
</linearGradient>
</defs>
</svg>
