<svg width="2" height="2" viewBox="0 0 2 2" fill="none" xmlns="http://www.w3.org/2000/svg">
<path d="M1.99966 0.960658C1.99966 1.15066 1.94106 1.33639 1.8312 1.49437C1.72133 1.65234 1.56515 1.77546 1.38245 1.84817C1.19976 1.92088 0.998734 1.93991 0.804788 1.90284C0.610843 1.86577 0.432701 1.77429 0.292874 1.63994C0.153047 1.50559 0.0577891 1.33441 0.0192109 1.14806C-0.0193673 0.96171 0.000435497 0.768558 0.0761094 0.593023C0.151783 0.417487 0.279983 0.26746 0.444403 0.161902C0.608822 0.0563449 0.802062 0 0.999808 0C1.13111 0 1.26115 0.0248494 1.38245 0.0731265C1.50376 0.121404 1.61399 0.192174 1.70683 0.281378C1.79967 0.370583 1.87326 0.476471 1.92351 0.593023C1.97375 0.709574 1.99966 0.834504 1.99966 0.960658Z" fill="white"/>
</svg>
