<svg width="50" height="23" viewBox="0 0 50 23" fill="none" xmlns="http://www.w3.org/2000/svg">
<path d="M33.7052 21.7737C46.386 19.9427 50.0793 13.4012 49.9988 7.7536V7.70203C49.9099 4.98208 48.8917 2.36597 47.1014 0.257883L46.8868 0C47.0388 0.189112 47.1908 0.386831 47.3339 0.601731C47.3876 0.670499 47.4323 0.747859 47.4859 0.825223L47.7721 1.29801C47.8258 1.38397 47.8705 1.47852 47.9242 1.57307C47.9778 1.66763 48.0941 1.90832 48.1835 2.08884L48.3176 2.37251C48.4071 2.58741 48.4965 2.80231 48.577 3.01721L48.6574 3.2407C48.7647 3.53296 48.8631 3.84242 48.9436 4.15187L48.9972 4.37538C49.0598 4.61607 49.1135 4.85675 49.1672 5.10603L49.2208 5.44128C49.2208 5.65618 49.2924 5.87967 49.3192 6.11176C49.3461 6.34386 49.3192 6.34386 49.3192 6.4642C49.3192 6.77366 49.3639 7.08311 49.3729 7.40117C49.3818 7.71922 49.3729 8.01149 49.3729 8.32095C49.3684 8.37817 49.3684 8.43564 49.3729 8.49286C49.3729 8.82811 49.3103 9.17195 49.2566 9.5072C49.2566 9.66193 49.194 9.80806 49.1583 9.96279C49.1225 10.1175 49.0867 10.3668 49.0331 10.5731C48.9205 11.0041 48.7831 11.4289 48.6217 11.8453C48.568 11.9743 48.5054 12.1118 48.4518 12.2493C48.3981 12.3869 48.2371 12.7393 48.1119 12.98L47.8616 13.427C47.7274 13.6505 47.5932 13.8826 47.4412 14.1061C47.2892 14.3296 47.2176 14.4327 47.0924 14.596L46.7258 15.0688C46.538 15.2923 46.3502 15.5158 46.1445 15.7307L46.0015 15.8854C45.7153 16.1691 45.4112 16.4528 45.1072 16.745L45.0088 16.831C44.655 17.1359 44.2849 17.4228 43.8999 17.6906C43.5065 17.9571 43.0772 18.2235 42.6211 18.4814L42.5138 18.5416C42.0845 18.7737 41.6195 19.0058 41.1545 19.2207L40.9756 19.3066C40.5106 19.5129 40.0188 19.7107 39.509 19.8912L39.2228 19.9943C38.6773 20.1834 38.114 20.3639 37.5148 20.5359H37.4611C36.9067 20.6906 36.3075 20.8281 35.6726 20.9657L34.7783 21.129C34.2328 21.2321 33.6873 21.3439 33.106 21.4213C32.5248 21.4986 32.1491 21.5502 31.6752 21.5932C30.8971 21.662 30.1281 21.6963 29.359 21.7049H28.116H27.2933L26.6494 21.662L25.8266 21.5932L25.2096 21.533L24.369 21.4213L23.7788 21.3353L22.8845 21.1806L22.33 21.086L21.4358 20.8797L20.9618 20.7766L19.7545 20.4757L19.6025 20.4327C19.1553 20.3124 18.7082 20.1834 18.27 20.0459L17.8318 19.8998L16.9375 19.6161L16.4189 19.427L15.6587 19.1519L15.1221 18.9456L14.4157 18.6705L13.8791 18.447L13.2084 18.1548L12.6808 17.9227L12.028 17.6218L11.5272 17.3811L10.8923 17.0803L10.4094 16.831L9.80126 16.5215L9.34517 16.2808L8.73707 15.9542L8.32569 15.7221L7.71759 15.3697L7.35096 15.1634L6.66235 14.7594L6.42983 14.6132L5.53556 14.0717L5.34774 13.9513L4.72179 13.5473L4.41772 13.341C4.26569 13.2465 4.10471 13.1433 3.96163 13.0402L3.6576 12.8338L3.26412 12.5588L2.969 12.3611L2.62022 12.1032C2.52185 12.043 2.44137 11.9742 2.35194 11.9141L2.04787 11.6906L1.7975 11.5101L1.52923 11.3038L1.31461 11.149L1.08209 10.9599L0.912177 10.831L0.706457 10.6677L0.572348 10.5645L0.384531 10.4098L0.304077 10.3496L0.152011 10.2207H0.107309C0.0698499 10.191 0.0340346 10.1594 0 10.1261L0.536543 10.7708C3.61284 13.5731 18.7172 23.9485 33.7052 21.7737Z" fill="url(#paint0_linear_116_1289)"/>
<defs>
<linearGradient id="paint0_linear_116_1289" x1="10.5927" y1="27.7008" x2="39.5286" y2="-7.99676" gradientUnits="userSpaceOnUse">
<stop offset="0.32" stop-color="#B65D31"/>
<stop offset="0.43" stop-color="#B86132"/>
<stop offset="0.73" stop-color="#BC6733"/>
<stop offset="0.96" stop-color="#DD9940"/>
<stop offset="0.98" stop-color="#E6AC44"/>
<stop offset="1" stop-color="#F8D44D"/>
</linearGradient>
</defs>
</svg>
