<svg width="3" height="3" viewBox="0 0 3 3" fill="none" xmlns="http://www.w3.org/2000/svg">
<path d="M2.43213 0.314831C2.58715 0.431945 2.71634 0.577522 2.81219 0.743107C2.90803 0.908692 2.96862 1.09098 2.9904 1.27929C3.01217 1.4676 2.99467 1.65817 2.93899 1.83993C2.88331 2.0217 2.79051 2.19099 2.66603 2.33794C2.48096 2.56 2.23154 2.72435 1.94927 2.81023C1.667 2.8961 1.36457 2.89966 1.08021 2.82041C0.795847 2.74117 0.542309 2.5827 0.351662 2.36504C0.161016 2.14738 0.0418617 1.88027 0.00916501 1.59753C-0.0235317 1.31479 0.0316851 1.02911 0.167955 0.77655C0.304224 0.523989 0.515373 0.315909 0.774696 0.178623C1.03402 0.0413374 1.3299 -0.0190102 1.62491 0.00523411C1.91991 0.0294784 2.20084 0.137225 2.43213 0.314831Z" fill="white"/>
</svg>
