<svg width="7" height="7" viewBox="0 0 7 7" fill="none" xmlns="http://www.w3.org/2000/svg">
<path d="M3.57044 0.0387521L4.35106 1.41435C4.62777 1.8901 5.03626 2.28279 5.5312 2.54878L6.96232 3.2991C6.97382 3.30643 6.98325 3.31639 6.98978 3.32808C6.9963 3.33977 6.9997 3.35283 6.9997 3.3661C6.9997 3.37936 6.9963 3.39242 6.98978 3.40411C6.98325 3.4158 6.97382 3.42576 6.96232 3.43309L5.5312 4.18342C5.03027 4.45794 4.62098 4.86379 4.35106 5.35357L3.57044 6.72918C3.56516 6.74285 3.55567 6.75464 3.54321 6.76297C3.53075 6.7713 3.51591 6.77577 3.50073 6.77577C3.48555 6.77577 3.47076 6.7713 3.4583 6.76297C3.44585 6.75464 3.4363 6.74285 3.43102 6.72918L2.65046 5.35357C2.37973 4.87882 1.97347 4.48832 1.47956 4.22808L0.0484944 3.47775C0.034267 3.47268 0.0219939 3.46353 0.0133289 3.45156C0.00466389 3.43958 0 3.42534 0 3.41076C0 3.39617 0.00466389 3.38193 0.0133289 3.36996C0.0219939 3.35798 0.034267 3.34884 0.0484944 3.34377L1.47956 2.59344C1.97381 2.3296 2.37989 1.93617 2.65046 1.45901L3.43102 0.0834104C3.42805 0.0665943 3.43148 0.0493154 3.44061 0.0346904C3.44974 0.0200654 3.46399 0.00906249 3.48082 0.00366879C3.49766 -0.00172491 3.51595 -0.00115698 3.53238 0.00527712C3.54881 0.0117112 3.56231 0.0235875 3.57044 0.0387521Z" fill="white"/>
</svg>
