<svg width="10" height="10" viewBox="0 0 10 10" fill="none" xmlns="http://www.w3.org/2000/svg">
<path d="M5.09801 0.0555539L6.21806 2.02037C6.60557 2.70228 7.18872 3.26284 7.89814 3.63532L9.94223 4.71193C9.95974 4.72124 9.97433 4.7349 9.98449 4.75146C9.99465 4.76803 10 4.78691 10 4.80614C10 4.82537 9.99465 4.84425 9.98449 4.86082C9.97433 4.87738 9.95974 4.89104 9.94223 4.90035L7.89814 5.97696C7.18679 6.34696 6.60298 6.90815 6.21806 7.59191L5.09801 9.55675C5.08832 9.57358 5.07413 9.58759 5.05689 9.59736C5.03966 9.60713 5.02002 9.61228 5.00001 9.61228C4.98 9.61228 4.96035 9.60713 4.94312 9.59736C4.92588 9.58759 4.91169 9.57358 4.902 9.55675L3.78195 7.59191C3.39445 6.91 2.81129 6.34944 2.10188 5.97696L0.0577805 4.90035C0.040274 4.89104 0.0256853 4.87738 0.015524 4.86082C0.00536266 4.84425 0 4.82537 0 4.80614C0 4.78691 0.00536266 4.76803 0.015524 4.75146C0.0256853 4.7349 0.040274 4.72124 0.0577805 4.71193L2.10188 3.63532C2.80941 3.26043 3.39194 2.70047 3.78195 2.02037L4.902 0.0555539C4.91169 0.0387262 4.92588 0.0246894 4.94312 0.0149221C4.96035 0.00515473 4.98 0 5.00001 0C5.02002 0 5.03966 0.00515473 5.05689 0.0149221C5.07413 0.0246894 5.08832 0.0387262 5.09801 0.0555539Z" fill="white"/>
</svg>
