<svg width="6" height="6" viewBox="0 0 6 6" fill="none" xmlns="http://www.w3.org/2000/svg">
<path d="M3.06157 0.0266037L3.72581 1.19549C3.95956 1.61164 4.31474 1.95306 4.74768 2.17774L5.96372 2.81622C5.97466 2.8208 5.98393 2.82835 5.99047 2.83795C5.99701 2.84754 6.00051 2.85876 6.00051 2.87023C6.00051 2.8817 5.99701 2.89292 5.99047 2.90252C5.98393 2.91211 5.97466 2.91968 5.96372 2.92426L4.74768 3.56272C4.31474 3.78741 3.95956 4.12882 3.72581 4.54498L3.06157 5.71386C3.05521 5.72403 3.04624 5.73245 3.0355 5.73829C3.02475 5.74413 3.0126 5.74719 3.00026 5.74719C2.98791 5.74719 2.97576 5.74413 2.96502 5.73829C2.95427 5.73245 2.94531 5.72403 2.93895 5.71386L2.27477 4.54498C2.04102 4.12882 1.68583 3.78741 1.25289 3.56272L0.0368608 2.92426C0.0259213 2.91968 0.01658 2.91211 0.0100416 2.90252C0.00350322 2.89292 0 2.8817 0 2.87023C0 2.85876 0.00350322 2.84754 0.0100416 2.83795C0.01658 2.82835 0.0259213 2.8208 0.0368608 2.81622L1.25289 2.17774C1.68583 1.95306 2.04102 1.61164 2.27477 1.19549L2.93895 0.0266037C2.94662 0.0182422 2.95607 0.0115564 2.96664 0.00696942C2.97721 0.00238246 2.98866 0 3.00026 0C3.01186 0 3.0233 0.00238246 3.03387 0.00696942C3.04445 0.0115564 3.0539 0.0182422 3.06157 0.0266037Z" fill="white"/>
</svg>
