<svg width="18" height="31" viewBox="0 0 18 31" fill="none" xmlns="http://www.w3.org/2000/svg">
<path style="mix-blend-mode:overlay" opacity="0.5" d="M16.4224 11.8776C13.6027 3.63329 8.00828 -1.50092 3.90515 0.392915C-0.197993 2.28675 -1.22828 10.5137 1.58246 18.7579C4.39321 27.0022 9.99661 32.1365 14.0907 30.2426C18.1848 28.3488 19.2332 20.1219 16.4224 11.8776ZM13.9732 29.9733C13.2399 30.2721 12.439 30.3843 11.6475 30.2991C10.856 30.2139 10.1007 29.9342 9.45434 29.4868C6.44477 27.7493 3.61596 23.7097 1.89879 18.6798C-0.857722 10.5919 0.0912273 2.53001 4.0588 0.696977C4.79207 0.398157 5.59305 0.285938 6.38454 0.371149C7.17604 0.456359 7.93135 0.736123 8.57767 1.18347C11.5963 2.92093 14.4161 6.96055 16.1332 11.9905C18.8626 20.0611 17.8956 28.1229 13.9732 29.9733Z" fill="url(#paint0_linear_116_1281)"/>
<defs>
<linearGradient id="paint0_linear_116_1281" x1="0.0693748" y1="19.4465" x2="15.2195" y2="12.016" gradientUnits="userSpaceOnUse">
<stop offset="0.16" stop-color="white" stop-opacity="0"/>
<stop offset="1" stop-color="white"/>
</linearGradient>
</defs>
</svg>
