<svg width="160" height="88" viewBox="0 0 160 88" fill="none" xmlns="http://www.w3.org/2000/svg">
<path d="M154.555 0L142.418 6.17354L137.043 8.9116L126.294 14.3791L119.836 17.6682L115.286 19.9844L80.1003 37.9023L74.8691 40.5628L15.2657 70.8967L13.08 72.016L0.951497 78.1895C0.875482 78.2255 0.803463 78.2688 0.736525 78.3187C0.566562 78.4532 0.423842 78.6167 0.31552 78.8009C0.31552 78.8611 0.261769 78.9386 0.225939 79.0075C0.156152 79.148 0.102109 79.2952 0.0647097 79.4466V79.5069C0.0647097 79.6016 0.0647097 79.705 0.0647097 79.7997C0.0647097 79.8944 0.0646933 80.0494 0.0199056 80.1785C-0.0248821 80.3077 0.0199056 80.2388 0.0199056 80.2646C0.0199056 80.2904 0.0199056 80.5574 0.0199056 80.7123C0.0154345 80.7955 0.0154345 80.8789 0.0199056 80.962V81.0137C0.0517264 81.283 0.0995817 81.5504 0.16323 81.8145C0.16323 81.8919 0.21699 81.978 0.234905 82.0641C0.297608 82.288 0.351354 82.5205 0.431972 82.753C0.44303 82.7888 0.458033 82.8235 0.476749 82.8563C0.575282 83.1232 0.682768 83.3901 0.808173 83.657C0.852961 83.7604 0.906718 83.8551 0.960464 83.9584C1.01421 84.0617 1.08587 84.2253 1.15753 84.3545L1.38147 84.7419C1.50687 84.94 1.63227 85.138 1.76664 85.3274L1.88309 85.4824L2.12493 85.7924C2.25034 85.9388 2.36679 86.0851 2.4922 86.2229C2.57105 86.3159 2.65476 86.405 2.74301 86.4898C2.79675 86.5501 2.84155 86.6104 2.8953 86.662L3.0834 86.817C3.19984 86.9289 3.32524 87.0323 3.44169 87.127C3.55814 87.2217 3.54024 87.2217 3.59398 87.2561C3.64773 87.2906 3.71938 87.3336 3.78208 87.3767L4.06873 87.5661L4.21205 87.6608L4.41806 87.7469C4.51002 87.797 4.60586 87.8401 4.70471 87.8761C4.74086 87.8984 4.78005 87.9158 4.82116 87.9277C4.88081 87.9317 4.94065 87.9317 5.0003 87.9277L5.34965 87.9966H5.4661C5.54068 88.0011 5.61547 88.0011 5.69004 87.9966H5.86024C6.02567 87.9728 6.18599 87.9233 6.33499 87.8502L159.939 9.66068L154.555 0Z" fill="url(#paint0_linear_116_1267)"/>
<defs>
<linearGradient id="paint0_linear_116_1267" x1="75.7924" y1="38.3998" x2="81.8968" y2="50.5463" gradientUnits="userSpaceOnUse">
<stop offset="0.09" stop-color="#32A5FC"/>
<stop offset="0.2" stop-color="#2490EC"/>
<stop offset="0.39" stop-color="#1073D6"/>
<stop offset="0.55" stop-color="#0461C8"/>
<stop offset="0.67" stop-color="#005BC3"/>
<stop offset="0.75" stop-color="#0867CC"/>
<stop offset="0.88" stop-color="#1D85E4"/>
<stop offset="1" stop-color="#32A5FC"/>
</linearGradient>
</defs>
</svg>
