<svg width="172" height="56" viewBox="0 0 172 56" fill="none" xmlns="http://www.w3.org/2000/svg">
<path d="M168.908 0L155.679 3.56654L149.818 5.14306L138.104 8.2961L131.06 10.1914L126.095 11.5008L87.736 21.8386L82.036 23.3721L17.0501 40.8602L14.6661 41.4977L1.43772 45.0987C1.35675 45.1184 1.27854 45.1473 1.20471 45.1849C1.00987 45.2772 0.836177 45.4061 0.693855 45.5639C0.643957 45.6236 0.599013 45.687 0.559425 45.7534C0.457452 45.8725 0.370223 46.0026 0.29951 46.1411C0.29951 46.1411 0.29951 46.1411 0.29951 46.2014C0.29951 46.2617 0.236787 46.3909 0.200938 46.4771C0.165088 46.5632 0.111301 46.7097 0.0754517 46.8389C0.0396024 46.9681 0.0754517 46.8906 0.0754517 46.925C0.0754517 46.9595 0.0216898 47.2093 0.00376512 47.3558C-0.00125504 47.4419 -0.00125504 47.5282 0.00376512 47.6142C0.00376512 47.6142 0.00376512 47.6142 0.00376512 47.6573C0.00376512 47.9158 0.00376512 48.1914 0.00376512 48.4757C0.00376512 48.5619 0.00376512 48.6566 0.00376512 48.7428C0.00376512 48.9754 0.00375418 49.208 0.0485658 49.4492C0.0528827 49.4893 0.0528827 49.5297 0.0485658 49.5698C0.0485658 49.8455 0.138201 50.1298 0.200938 50.4313C0.200938 50.5433 0.254708 50.6467 0.281595 50.7587C0.308482 50.8707 0.344327 51.0429 0.389139 51.1894L0.523568 51.6115C0.595267 51.8355 0.68488 52.0509 0.765541 52.2576C0.765541 52.3265 0.828283 52.3782 0.85517 52.4385L1.01649 52.7917C1.09715 52.964 1.18678 53.1277 1.2764 53.2828L1.4646 53.6015C1.4646 53.6618 1.53631 53.7394 1.58112 53.7997C1.62384 53.8636 1.6718 53.924 1.72452 53.9806C1.81067 54.1133 1.90652 54.24 2.01132 54.3597C2.04707 54.4162 2.08597 54.4708 2.12783 54.5233L2.28018 54.6784L2.52218 54.9196C2.56699 54.9196 2.60282 55.0058 2.64764 55.0402C2.69245 55.0747 2.76416 55.1264 2.82689 55.1781L3.06887 55.3504C3.10251 55.3789 3.13847 55.4048 3.17641 55.4279C3.23138 55.4572 3.28826 55.4831 3.3467 55.5054C3.45078 55.5585 3.55861 55.6046 3.66936 55.6433L3.7769 55.6949H4.00096H4.16227C4.32848 55.7208 4.49795 55.7208 4.66416 55.6949L172 10.6393L168.908 0Z" fill="url(#paint0_linear_116_1283)"/>
<defs>
<linearGradient id="paint0_linear_116_1283" x1="83.5035" y1="21.464" x2="86.9483" y2="34.5501" gradientUnits="userSpaceOnUse">
<stop offset="0.09" stop-color="#32A5FC"/>
<stop offset="0.2" stop-color="#2490EC"/>
<stop offset="0.39" stop-color="#1073D6"/>
<stop offset="0.55" stop-color="#0461C8"/>
<stop offset="0.67" stop-color="#005BC3"/>
<stop offset="0.75" stop-color="#0867CC"/>
<stop offset="0.88" stop-color="#1D85E4"/>
<stop offset="1" stop-color="#32A5FC"/>
</linearGradient>
</defs>
</svg>
