<svg width="49" height="26" viewBox="0 0 49 26" fill="none" xmlns="http://www.w3.org/2000/svg">
<path d="M35.6673 24.1219C47.7244 19.7109 49.9018 12.5323 48.5702 6.98835V6.92781C47.8811 4.27275 46.2997 1.9105 44.0713 0.207579L43.8013 0C44.0019 0.154838 44.194 0.319387 44.3772 0.492996C44.4401 0.553539 44.5032 0.622731 44.5751 0.683274L44.953 1.08977C45.0298 1.16647 45.1019 1.24732 45.169 1.33194C45.2949 1.47898 45.4209 1.62601 45.5379 1.78169L45.7358 2.04115C45.8708 2.22278 46.0058 2.42172 46.1317 2.62064L46.2667 2.81956C46.4377 3.08768 46.5996 3.36445 46.7526 3.68446L46.8516 3.89202C46.9685 4.1169 47.0765 4.34178 47.1755 4.5753L47.3105 4.88666L47.5534 5.52669L47.6614 5.87264C47.7604 6.1667 47.8503 6.46942 47.9223 6.78078C47.9943 7.09214 48.0483 7.38621 48.1023 7.64567C48.1023 7.70622 48.1023 7.75811 48.1023 7.81865C48.1023 8.15596 48.1832 8.49327 48.2102 8.84788C48.2102 8.99491 48.2102 9.15059 48.2102 9.30627C48.2102 9.46195 48.2102 9.72141 48.2102 9.93764C48.1943 10.3835 48.1522 10.8282 48.0843 11.2696C48.0843 11.408 48.0303 11.555 48.0033 11.702C47.9763 11.8491 47.9043 12.2296 47.8323 12.4891C47.7604 12.7485 47.7423 12.8177 47.6884 12.9821C47.6344 13.1464 47.5264 13.4837 47.4274 13.7345C47.3285 13.9853 47.2835 14.0978 47.1935 14.2881C47.1035 14.4783 47.0316 14.6513 46.9416 14.8329C46.8516 15.0146 46.6716 15.3432 46.5186 15.6027C46.4793 15.6613 46.4433 15.722 46.4107 15.7843C46.1947 16.1216 45.9608 16.4589 45.6999 16.7963L45.6189 16.9087C45.3399 17.2633 45.043 17.6093 44.7191 17.9552C44.3767 18.3232 44.0133 18.6726 43.6304 19.0017C43.5982 19.0283 43.5681 19.0573 43.5404 19.0882C43.1715 19.4082 42.7756 19.7196 42.3617 20.0309L42.1997 20.152C41.7858 20.4461 41.2999 20.7402 40.886 21.0169L40.6251 21.1726C40.1392 21.4753 39.6264 21.7694 39.0775 22.0375H39.0235C38.5106 22.3056 37.9528 22.5564 37.3859 22.8159L36.5761 23.1532C36.0632 23.3694 35.5503 23.5857 35.0015 23.7846C34.4526 23.9835 34.1017 24.1046 33.6338 24.243C32.887 24.4765 32.1311 24.6668 31.3753 24.8398L30.7995 24.9608L30.1606 25.0819C29.8817 25.1338 29.6118 25.1857 29.3329 25.2203L28.703 25.3155L27.8752 25.4192L27.2454 25.4798L26.3996 25.5403H25.7967H24.8969H24.3301H22.8994C22.4765 25.5403 22.0626 25.5403 21.6397 25.4884H21.4867C21.0189 25.4884 20.587 25.4192 20.0831 25.376L19.6242 25.3328L18.7244 25.229L18.1756 25.1511L17.3658 25.0387L16.7989 24.9436L16.0341 24.8138L15.4672 24.7014L14.7564 24.71L14.1985 24.5889L13.4877 24.4333L12.9389 24.3035L12.246 24.1306L11.7241 23.9922L11.0493 23.8019L10.5454 23.6635L9.87958 23.4646L9.42071 23.3262L8.73686 23.11L8.34096 22.9802L7.57614 22.7121L7.30622 22.6256L6.33446 22.271L6.1185 22.1932L5.41667 21.9251L5.06577 21.7867L4.55289 21.5878L4.20196 21.4407L3.76108 21.2505L3.42816 21.1121L3.02325 20.9391L2.71733 20.8007L2.36643 20.645L2.0875 20.5153L1.77257 20.3769L1.52961 20.2645L1.25969 20.1261L1.06173 20.0309L0.818804 19.9185L0.665829 19.8407L0.44989 19.7282L0.359907 19.685L0.17994 19.5899H0.134962L0 19.5207L0.665829 20.0483C4.23796 22.2451 21.3968 29.3459 35.6673 24.1219Z" fill="url(#paint0_linear_116_1273)"/>
<defs>
<linearGradient id="paint0_linear_116_1273" x1="14.2255" y1="34.7255" x2="35.0228" y2="-6.17214" gradientUnits="userSpaceOnUse">
<stop offset="0.32" stop-color="#B65D31"/>
<stop offset="0.43" stop-color="#B86132"/>
<stop offset="0.73" stop-color="#BC6733"/>
<stop offset="0.96" stop-color="#DD9940"/>
<stop offset="0.98" stop-color="#E6AC44"/>
<stop offset="1" stop-color="#F8D44D"/>
</linearGradient>
</defs>
</svg>
