<svg width="31" height="19" viewBox="0 0 31 19" fill="none" xmlns="http://www.w3.org/2000/svg">
<path d="M30.1894 17.3138C30.1894 17.3654 30.1894 17.4256 30.1894 17.4772C30.1755 17.6561 30.1516 17.8342 30.1178 18.0106C30.1178 18.0106 30.1178 18.0709 30.1178 18.1053C30.0925 18.2537 30.0566 18.4003 30.0104 18.544C29.9631 18.7003 29.9032 18.8527 29.8314 19L30.3505 18.3118C30.9949 15.7308 29.9657 10.3967 27.2895 6.33598C23.5125 0.588981 16.2627 -3.2825 5.93406 3.91845C4.55442 4.89156 3.28807 6.00496 2.15703 7.23932C1.79902 7.66088 1.44101 8.09965 1.1009 8.53842L0 10.001C1.62127 7.80679 3.59037 5.87049 5.83559 4.26258C6.37261 3.89551 6.9007 3.55138 7.41982 3.23019L7.60777 3.11834C8.09705 2.82583 8.58036 2.55914 9.05771 2.31824L9.29936 2.19779C9.77373 1.9655 10.1944 1.75903 10.6777 1.57836L10.9104 1.48372C11.3669 1.30305 11.8054 1.14819 12.253 1.01054L12.4051 0.96752C12.8872 0.823705 13.3772 0.705946 13.873 0.614789H14.0609C14.3384 0.563169 14.6069 0.528757 14.8754 0.494343H15.1618L15.7346 0.451324H16.0031C16.1641 0.442714 16.3255 0.442714 16.4865 0.451324H16.7729H17.0682H17.471H17.7485L18.1423 0.502949H18.4019L18.7867 0.580375L19.0552 0.640598L19.4222 0.735234L19.6818 0.812667L20.0219 0.924508L20.3172 1.02775L20.6215 1.1482L20.9348 1.28584L21.2122 1.4149L21.5792 1.59556L21.8208 1.72461L22.4205 2.06875L22.4921 2.12036C22.7606 2.28383 23.0202 2.4731 23.2797 2.66237L23.4051 2.75701C23.8265 3.07739 24.2298 3.41914 24.6133 3.7808L24.6671 3.84102C25.1046 4.26285 25.5169 4.70806 25.9022 5.17453C26.287 5.65632 26.654 6.15531 26.9941 6.67151C27.3622 7.22774 27.6998 7.80207 28.0055 8.39216C28.0055 8.39216 28.0055 8.39216 28.0055 8.44378C28.1935 8.78791 28.3546 9.14065 28.5157 9.49338L28.6499 9.8117C28.7842 10.1128 28.9095 10.4225 29.0259 10.7236C29.0457 10.7937 29.0696 10.8626 29.0974 10.9301C29.3123 11.5152 29.5002 12.1002 29.6524 12.6508C29.6485 12.6678 29.6485 12.6854 29.6524 12.7024C29.7598 13.1412 29.8582 13.5627 29.9298 13.9929C29.9341 14.0731 29.9341 14.1535 29.9298 14.2338C29.9925 14.5693 30.0373 14.9049 30.0731 15.2232C30.0731 15.2834 30.0731 15.3436 30.0731 15.4124C30.0731 15.6275 30.0731 15.834 30.0731 16.0405C30.0731 16.247 30.0731 16.2728 30.0731 16.3846V16.7201C30.2073 17.0299 30.1984 17.1761 30.1894 17.3138Z" fill="url(#paint0_linear_116_1275)"/>
<defs>
<linearGradient id="paint0_linear_116_1275" x1="12.3872" y1="4.80459" x2="18.253" y2="20.2171" gradientUnits="userSpaceOnUse">
<stop stop-color="#FFFF7C"/>
<stop offset="1" stop-color="#F1B747"/>
</linearGradient>
</defs>
</svg>
