<svg width="8" height="11" viewBox="0 0 8 11" fill="none" xmlns="http://www.w3.org/2000/svg">
<path style="mix-blend-mode:overlay" opacity="0.5" d="M6.46495 3.6158C4.73106 0.806819 2.21788 -0.700673 0.85415 0.319925C-0.509584 1.34052 -0.207612 4.48659 1.52628 7.33303C3.26017 10.1795 5.78304 11.6495 7.14677 10.6289C8.5105 9.60831 8.20858 6.49969 6.46495 3.6158ZM6.96169 10.3948C6.72211 10.5722 6.42628 10.6648 6.12398 10.657C4.79921 10.657 3.06531 9.26186 1.78924 7.18321C0.162504 4.50531 -0.158907 1.47161 1.03923 0.554007C1.2788 0.376629 1.57464 0.28404 1.87694 0.291836C3.19197 0.291836 4.93561 1.68697 6.21168 3.76562C7.83842 6.48097 8.18905 9.51467 6.96169 10.4323V10.3948Z" fill="url(#paint0_linear_116_1271)"/>
<defs>
<linearGradient id="paint0_linear_116_1271" x1="-0.00305325" y1="5.50719" x2="8.00399" y2="5.50719" gradientUnits="userSpaceOnUse">
<stop stop-color="white" stop-opacity="0"/>
<stop offset="1" stop-color="white"/>
</linearGradient>
</defs>
</svg>
