<svg width="5" height="4" viewBox="0 0 5 4" fill="none" xmlns="http://www.w3.org/2000/svg">
<path d="M3.38488 0.44167C3.70532 0.689467 3.94216 1.023 4.06552 1.40012C4.18887 1.77724 4.19321 2.18103 4.07794 2.56051C3.96268 2.93999 3.73299 3.27812 3.41791 3.53219C3.10283 3.78626 2.71649 3.94488 2.30768 3.98801C1.89886 4.03114 1.48594 3.95686 1.12103 3.77452C0.756119 3.59219 0.455573 3.30999 0.257423 2.96357C0.0592725 2.61716 -0.0276319 2.22209 0.00768862 1.82823C0.0430091 1.43437 0.19897 1.0594 0.45587 0.750693C0.626851 0.545231 0.838332 0.374201 1.07819 0.247434C1.31805 0.120666 1.58157 0.0406453 1.85366 0.0119399C2.12575 -0.0167656 2.40105 0.00641012 2.6638 0.0801518C2.92655 0.153894 3.17161 0.276747 3.38488 0.44167Z" fill="white"/>
</svg>
