<svg width="21" height="29" viewBox="0 0 21 29" fill="none" xmlns="http://www.w3.org/2000/svg">
<path style="mix-blend-mode:overlay" opacity="0.5" d="M16.9765 9.51138C12.4121 2.04589 5.81814 -1.82126 2.23701 0.840656C-1.34411 3.50257 -0.541289 11.7571 4.04111 19.2226C8.6235 26.6881 15.1994 30.5639 18.7715 27.8933C22.3436 25.2227 21.5318 16.9769 16.9765 9.51138ZM18.5551 27.6505C17.9055 28.0892 17.1497 28.3602 16.36 28.4377C15.5703 28.5151 14.7731 28.3963 14.0448 28.0927C10.7253 27.0089 7.08103 23.6447 4.29371 19.0925C-0.216526 11.7658 -1.01937 3.70199 2.43547 1.10945C3.08507 0.670623 3.84141 0.400185 4.63145 0.324244C5.42149 0.248303 6.21855 0.369424 6.9457 0.67591C10.2742 1.75108 13.9185 5.11532 16.6968 9.67612C21.162 16.9942 21.9828 25.058 18.5551 27.6505Z" fill="url(#paint0_linear_116_1265)"/>
<defs>
<linearGradient id="paint0_linear_116_1265" x1="2.60689" y1="20.2346" x2="15.6695" y2="9.80659" gradientUnits="userSpaceOnUse">
<stop offset="0.16" stop-color="white" stop-opacity="0"/>
<stop offset="1" stop-color="white"/>
</linearGradient>
</defs>
</svg>
