<svg width="29" height="22" viewBox="0 0 29 22" fill="none" xmlns="http://www.w3.org/2000/svg">
<path d="M28.0667 20.1665C28.0667 20.2185 28.0667 20.2706 28.0667 20.3226C28.0667 20.3747 27.9403 20.6697 27.8771 20.8259V20.9214C27.8181 21.0605 27.7518 21.1966 27.6785 21.3292C27.5882 21.4768 27.498 21.6156 27.4077 21.7371L28.0667 21.173C29.2854 18.7433 29.4479 13.2938 27.7236 8.73814C25.2772 2.29074 18.985 -3.01123 7.20402 1.96099C5.63077 2.63509 4.13595 3.46696 2.74441 4.44277C2.29303 4.78987 1.85065 5.14564 1.41733 5.5101L0 6.72495C2.08486 4.8934 4.45847 3.39092 7.0325 2.27338C7.64637 2.01306 8.24219 1.79611 8.83801 1.58785L9.04562 1.50976C9.5963 1.32753 10.129 1.16266 10.6526 1.02382L10.9234 0.954394C11.4289 0.824231 11.9344 0.711419 12.4129 0.624644H12.6657C13.1532 0.537869 13.6316 0.477125 14.092 0.433737H14.2545C14.7618 0.390847 15.271 0.37347 15.7802 0.381674H15.9697C16.2586 0.381674 16.5295 0.381672 16.8003 0.433737H17.0891L17.6669 0.520518H17.9288L18.4072 0.624644L18.687 0.685393L18.9759 0.763488L19.3641 0.8763L19.6259 0.963067C19.7523 1.00645 19.8877 1.04985 20.0051 1.10191L20.2578 1.19736L20.619 1.35355L20.8627 1.47505L21.2058 1.63991L21.4404 1.77008L21.7564 1.95231C21.847 2.0022 21.9344 2.05725 22.0182 2.11718C22.1149 2.17289 22.2084 2.23373 22.2981 2.29941L22.5779 2.49032L22.8217 2.67254L23.1467 2.93287L23.3543 3.10642C23.5288 3.25683 23.7003 3.41303 23.8688 3.57501L23.932 3.63575C24.1577 3.85269 24.3744 4.08698 24.5821 4.32995L24.6904 4.45144C25.0324 4.85417 25.3519 5.27418 25.6473 5.70968V5.7791C25.9762 6.28733 26.2775 6.81157 26.5501 7.34973C26.8299 7.90509 27.0737 8.46913 27.2994 9.08524C27.5251 9.70134 27.7417 10.3522 27.9132 10.9943C27.9132 10.9943 27.9132 11.0377 27.9132 11.055C28.0155 11.4369 28.1058 11.8187 28.184 12.2005C28.184 12.3133 28.1841 12.4261 28.2472 12.5389C28.3104 12.8687 28.3556 13.1897 28.4007 13.5195C28.405 13.5888 28.405 13.6584 28.4007 13.7277C28.4819 14.3525 28.5271 14.9686 28.5542 15.5674V15.6281C28.5542 16.0793 28.5542 16.4959 28.5542 16.9558C28.5496 17.0367 28.5496 17.1178 28.5542 17.1987C28.5542 17.5372 28.5542 17.8756 28.4639 18.2053C28.4683 18.266 28.4683 18.3269 28.4639 18.3876C28.4639 18.6045 28.4097 18.8128 28.3646 19.021C28.3195 19.2293 28.3646 19.2466 28.3014 19.3681L28.2201 19.6892C28.175 19.8888 28.1118 20.0276 28.0667 20.1665Z" fill="url(#paint0_linear_116_1291)"/>
<defs>
<linearGradient id="paint0_linear_116_1291" x1="13.3351" y1="4.13854" x2="15.92" y2="20.5077" gradientUnits="userSpaceOnUse">
<stop stop-color="#FFFF7C"/>
<stop offset="1" stop-color="#F1B747"/>
</linearGradient>
</defs>
</svg>
